<svg xmlns="http://www.w3.org/2000/svg" width="369.959" height="37">
  <path fill="#fff" d="M357.547 0l.855 1.6 1.6.912-1.6.855-.855 1.653-.912-1.653-1.6-.855 1.6-.912zM231.568 1.016l1.531 2.859 2.859 1.633-2.859 1.531L231.568 10l-1.633-2.961-2.859-1.531 2.859-1.633zM365.568 27.016l1.531 2.859 2.859 1.633-2.859 1.531L365.568 36l-1.633-2.961-2.859-1.531 2.859-1.633zM198.883 24.88l1.638 3.058 3.058 1.748-3.058 1.638-1.638 3.167-1.748-3.167-3.058-1.638 3.058-1.748zM157.381 6.88l2.831 5.284 5.284 3.019-5.284 2.831-2.831 5.473-3.019-5.473-5.284-2.831 5.284-3.019zM61.45 37.001l-.855-1.6-1.6-.912 1.6-.855.855-1.653.912 1.653 1.6.855-1.6.912zM96.45 6.001l-.855-1.6-1.6-.912 1.6-.855.855-1.653.912 1.653 1.6.855-1.6.912zM2.45 11.001l-.855-1.6-1.6-.912 1.6-.855.855-1.653.912 1.653 1.6.855-1.6.912z"/>
</svg>
