<svg xmlns="http://www.w3.org/2000/svg" viewBox="0 0 21.646 21.447">
  <path fill="#fff" d="M2.47 11.322l3.293 1.4s2.48 1.764 2.912 2.631 2.03 3.986 2.03 3.986l1.9-3.986 2.865-2.631 4.189-1.4-3.57-2.294-3.484-3.852-1.9-2.495-2.821 4.975z"/>
  <path fill="#ffc400" d="M10.827 21.447a1.014 1.014 0 0 1-.947-.744 11.643 11.643 0 0 0-2.231-4.8.967.967 0 0 1 1.553-1.15 19.979 19.979 0 0 1 1.555 2.569 12.726 12.726 0 0 1 6.762-6.762 13.461 13.461 0 0 1-6.9-6.9 12.724 12.724 0 0 1-6.626 6.9 12.879 12.879 0 0 1 2.637 1.555.967.967 0 1 1-1.149 1.555 10.381 10.381 0 0 0-4.665-2.028 1 1 0 0 1-.811-.879.88.88 0 0 1 .744-.947 11.575 11.575 0 0 0 8.52-7.776v-.068c.338-.879.609-1.42.609-1.42a.87.87 0 0 1 1.014-.541.935.935 0 0 1 .811.744c.879 4.53 4.327 7.911 9.2 9.061a.94.94 0 0 1 .744.947 1 1 0 0 1-.811.947 11.063 11.063 0 0 0-9.061 9.061.973.973 0 0 1-.947.676z"/>
</svg>
