<svg xmlns="http://www.w3.org/2000/svg" viewBox="0 0 19.579 22.761">
  <path fill="#fff" d="M1.453 9.856l4.319 2.206 2.532 3.287 1.158 2.142 2.164-4.316 1.808-1.65 3.5-1.668h.46l-3.6-1.47-2.619-2.831-1.043-2.168-.666-1.767-1.634 3.68-2.458 2.856-3.375 1.308z"/>
  <path fill="#ffc400" d="M19.201 9.676a.473.473 0 0 1-.347.441 12.642 12.642 0 0 0-4.665 2.143.451.451 0 1 1-.536-.725 14.727 14.727 0 0 1 3.4-1.828A11.4 11.4 0 0 1 9.52 2.174a12.03 12.03 0 0 1-7.754 7.659c.032 0 .063.032.095.032a11.919 11.919 0 0 1 7.659 7.344 11.124 11.124 0 0 1 1.765-3.373.451.451 0 1 1 .725.536 10.337 10.337 0 0 0-1.986 4.539.468.468 0 0 1-.41.378.41.41 0 0 1-.441-.347 11.245 11.245 0 0 0-7.561-8.254h-.03a62.998 62.998 0 0 0-1.324-.567.406.406 0 0 1-.252-.473.436.436 0 0 1 .347-.378A11.356 11.356 0 0 0 9.21.35a.438.438 0 0 1 .441-.347.467.467 0 0 1 .441.378 10.747 10.747 0 0 0 8.825 8.825.616.616 0 0 1 .284.473zM19.579 19.065a.473.473 0 0 1-.347.441 4.3 4.3 0 0 0-1.544.693.451.451 0 1 1-.536-.725 2.577 2.577 0 0 1 .63-.378 4.208 4.208 0 0 1-1.923-1.923 4.5 4.5 0 0 1-1.954 1.954 4.3 4.3 0 0 1 1.954 1.86 4.329 4.329 0 0 1 .41-.63.451.451 0 1 1 .725.536 3.957 3.957 0 0 0-.662 1.486.468.468 0 0 1-.41.378.41.41 0 0 1-.441-.347 3.647 3.647 0 0 0-2.458-2.711h-.031c-.284-.126-.473-.189-.473-.189a.406.406 0 0 1-.252-.473.436.436 0 0 1 .347-.378 3.671 3.671 0 0 0 2.868-2.9.438.438 0 0 1 .441-.347.467.467 0 0 1 .441.378 3.518 3.518 0 0 0 2.868 2.869.41.41 0 0 1 .347.41z"/>
</svg>
