<svg xmlns="http://www.w3.org/2000/svg" viewBox="0 0 34.8 29.9">
  <path fill="#fff" d="M19.7 2.2l-3.4 6.6-5 3.9L8 14.5l6.6 3.3 2.5 2.8 2.6 5.3v.7l2.2-5.5 4.3-4 3.3-1.6 2.7-1-5.5-2.5-4.4-3.8-2-5.2-.6-.8z"/>
  <path fill="#fcc400" d="M20 29.4c-.3 0-.6-.2-.7-.5-.6-2.6-1.7-5-3.3-7.1-.2-.3-.2-.7.1-1 .3-.2.7-.2 1 .1 1.2 1.6 2.1 3.4 2.8 5.2 1.7-5.5 6-9.8 11.5-11.5-5.6-1.9-9.9-6.3-11.7-11.9v.1C18 8.3 13.9 12.6 8.5 14.6c1.9.6 3.6 1.5 5.2 2.7.3.2.4.7.2 1-.2.3-.7.4-1 .2-2-1.6-4.4-2.6-6.9-3-.3-.1-.5-.3-.6-.6 0-.3.2-.6.5-.7 6.4-1.7 10.7-5.7 12.6-11.6v-.2c.5-1.2.9-2 .9-2 .1-.3.4-.5.7-.4.3 0 .5.2.6.5C22 7.2 27.1 12.3 34.3 14c.3.1.5.4.5.7 0 .3-.3.6-.6.7-6.9 1.2-12.3 6.6-13.5 13.5-.1.3-.4.4-.7.5zm-14.4.5c-.3 0-.6-.2-.7-.5-.2-.8-.6-1.7-1.1-2.4-.2-.3-.1-.7.2-1 .3-.2.7-.2.9.1.2.3.4.6.6 1 .6-1.3 1.7-2.3 2.9-2.9-1.3-.7-2.3-1.7-3-3-.6 1.3-1.6 2.3-2.8 3 .3.2.7.4 1 .6.3.2.4.7.2 1-.2.3-.7.4-1 .2-.7-.5-1.4-.8-2.3-1-.2-.1-.5-.3-.5-.7 0-.3.2-.6.5-.7 2-.4 3.5-1.9 4.1-3.8.3-.4.4-.7.4-.7.1-.3.4-.5.7-.4.3 0 .5.2.6.5.5 2.2 2.2 4 4.4 4.4.3.1.5.4.5.7 0 .3-.3.6-.6.7-2.2.4-4 2.1-4.4 4.4 0 .3-.2.5-.6.5z"/>
</svg>
